<?xml version="1.0" encoding="UTF-8"?>
<svg xmlns="http://www.w3.org/2000/svg" viewBox="0 0 500 500">
  <defs>
    <style>
      .cls-1 {
        fill: #f0f0f0;
      }

      .cls-2, .cls-3 {
        fill: #fff;
      }

      .cls-4 {
        fill: #fafafa;
      }

      .cls-5, .cls-3 {
        opacity: .5;
      }

      .cls-6 {
        fill: #f5f5f5;
      }

      .cls-7 {
        opacity: .2;
      }

      .cls-8 {
        fill: #e0e0e0;
      }

      .cls-9 {
        fill: #e6e6e6;
      }

      .cls-10 {
        fill: #ed847e;
      }

      .cls-11 {
        opacity: .7;
      }

      .cls-11, .cls-12 {
        fill: #407bff;
      }

      .cls-13 {
        fill: #ebebeb;
      }

      .cls-14 {
        fill: #ffc3bd;
      }

      .cls-15 {
        fill: #263238;
      }
    </style>
  </defs>
  <g id="Background_Complete" data-name="Background Complete">
    <g>
      <rect class="cls-13" y="382.4" width="500" height=".25"/>
      <rect class="cls-13" x="435" y="398.49" width="14.9" height=".25"/>
      <rect class="cls-13" x="322.53" y="401.21" width="8.69" height=".25"/>
      <rect class="cls-13" x="396.59" y="389.21" width="34.19" height=".25"/>
      <rect class="cls-13" x="66.44" y="394.37" width="43.19" height=".25"/>
      <rect class="cls-13" x="118.53" y="394.37" width="15.58" height=".25"/>
      <rect class="cls-13" x="161.08" y="391.01" width="93.68" height=".25"/>
      <path class="cls-13" d="m237.01,337.8H43.91c-3.15,0-5.71-2.56-5.71-5.71V60.66c0-3.15,2.56-5.71,5.71-5.71h193.1c3.15,0,5.71,2.56,5.71,5.71v271.43c0,3.15-2.56,5.71-5.71,5.71ZM43.91,55.2c-3.01,0-5.46,2.45-5.46,5.46v271.43c0,3.01,2.45,5.46,5.46,5.46h193.1c3.01,0,5.46-2.45,5.46-5.46V60.66c0-3.01-2.45-5.46-5.46-5.46H43.91Z"/>
      <path class="cls-13" d="m453.31,337.8h-193.1c-3.15,0-5.71-2.56-5.71-5.71V60.66c0-3.15,2.56-5.71,5.71-5.71h193.1c3.15,0,5.71,2.56,5.71,5.71v271.43c0,3.15-2.56,5.71-5.71,5.71ZM260.21,55.2c-3.01,0-5.46,2.45-5.46,5.46v271.43c0,3.01,2.45,5.46,5.46,5.46h193.1c3.01,0,5.46-2.45,5.46-5.46V60.66c0-3.01-2.45-5.46-5.46-5.46h-193.1Z"/>
    </g>
    <g>
      <g>
        <rect class="cls-9" x="214.47" y="254.53" width="18.62" height="127.87" transform="translate(447.57 636.93) rotate(180)"/>
        <polygon class="cls-1" points="221.03 382.4 214.47 382.4 214.47 358.1 227.9 358.1 221.03 382.4"/>
        <rect class="cls-9" x="411.4" y="254.53" width="18.62" height="127.87" transform="translate(841.42 636.93) rotate(180)"/>
        <rect class="cls-1" x="214.47" y="254.53" width="202.64" height="121.24" transform="translate(631.59 630.29) rotate(180)"/>
        <polygon class="cls-1" points="410.56 382.4 417.12 382.4 417.12 358.1 403.69 358.1 410.56 382.4"/>
        <g>
          <rect class="cls-9" x="330.2" y="284.68" width="100.29" height="60.07" transform="translate(65.63 695.06) rotate(-90)"/>
          <path class="cls-1" d="m374.4,268.09h11.88c5.16,0,10.1-1.85,13.65-5.13h-39.18c3.55,3.27,8.49,5.13,13.65,5.13Z"/>
        </g>
        <g>
          <rect class="cls-9" x="265.65" y="284.68" width="100.29" height="60.07" transform="translate(1.08 630.51) rotate(-90)"/>
          <path class="cls-1" d="m309.25,268.09h11.88c5.16,0,10.1-1.85,13.65-5.13h-39.18c3.55,3.27,8.49,5.13,13.65,5.13Z"/>
        </g>
        <g>
          <rect class="cls-9" x="201.1" y="284.68" width="100.29" height="60.07" transform="translate(-63.46 565.96) rotate(-90)"/>
          <path class="cls-1" d="m244.7,268.09h11.88c5.16,0,10.1-1.85,13.65-5.13h-39.18c3.55,3.27,8.49,5.13,13.65,5.13Z"/>
        </g>
      </g>
      <g>
        <rect class="cls-1" x="69.98" y="96.78" width="127.06" height="285.62" transform="translate(267.02 479.18) rotate(180)"/>
        <rect class="cls-6" x="69.98" y="96.78" width="124.38" height="285.62" transform="translate(264.34 479.18) rotate(180)"/>
        <rect class="cls-1" x="-4.16" y="184.98" width="272.66" height="109.22" transform="translate(371.76 107.42) rotate(90)"/>
        <path class="cls-4" d="m176.05,153.97h0c0-16.45-13.33-29.78-29.78-29.78h-28.2c-16.44,0-29.78,13.33-29.78,29.78h87.75Z"/>
        <rect class="cls-6" x="99.6" y="282.52" width="65.14" height="87.75" transform="translate(458.57 194.23) rotate(90)"/>
        <rect class="cls-6" x="137.34" y="172.33" width="38.71" height="113.09"/>
        <rect class="cls-6" x="88.29" y="172.33" width="38.71" height="113.09"/>
        <path class="cls-8" d="m102.33,228.37h-15.85c-1.35,0-2.46-1.11-2.46-2.46h0c0-1.35,1.11-2.46,2.46-2.46h15.85c1.35,0,2.46,1.11,2.46,2.46h0c0,1.35-1.11,2.46-2.46,2.46Z"/>
        <rect class="cls-1" x="-57.79" y="238.61" width="272.66" height="1.97" transform="translate(318.13 161.05) rotate(90)"/>
      </g>
      <g>
        <rect class="cls-9" x="277.41" y="96.78" width="134.74" height="126.4" transform="translate(689.56 319.96) rotate(180)"/>
        <rect class="cls-6" x="274.01" y="96.78" width="134.74" height="126.4" transform="translate(682.77 319.96) rotate(180)"/>
        <rect class="cls-9" x="266.15" y="223.18" width="146.01" height="7.32" transform="translate(678.3 453.68) rotate(180)"/>
        <rect class="cls-6" x="262.32" y="223.18" width="138.49" height="7.32" transform="translate(663.13 453.68) rotate(180)"/>
        <rect class="cls-2" x="284.76" y="98.7" width="113.25" height="122.55" transform="translate(501.36 -181.41) rotate(90)"/>
        <rect class="cls-6" x="284.76" y="156.58" width="113.25" height="6.79" transform="translate(501.36 -181.41) rotate(90)"/>
        <rect class="cls-9" x="224.77" y="158.69" width="113.25" height="2.57" transform="translate(441.37 -121.41) rotate(90)"/>
        <rect class="cls-9" x="289.44" y="158.69" width="113.25" height="2.57" transform="translate(506.04 -186.09) rotate(90)"/>
      </g>
      <g>
        <g>
          <path class="cls-9" d="m295.52,226.53c-2.48-25.68-4.2-67.34-2.86-81.28.05-.48.3-.92.7-1.21h0c1.15-.84,2.77,0,2.72,1.44-.24,6.91-.51,24.16.96,53.94.73,14.82,1.79,24.97,1.06,27.11h-2.58Z"/>
          <path class="cls-9" d="m286.28,167.35c-7.06-7.84-21.47-13.41-36.15-13.38-5.77.01,17.54,9.11,27.23,19.16,7.53,7.8,16.02,20.93,18.91,28.22-1.87-15.33-2.93-26.17-9.99-34Z"/>
          <path class="cls-9" d="m300.27,169.74c5.86-8.16,19.39-14.44,34.02-15.15,5.75-.28-16.11,9.96-24.27,20.46-6.34,8.15-12.83,21.66-14.62,29.06-.43-15.37-.99-26.22,4.87-34.38Z"/>
          <path class="cls-9" d="m285.97,138.74c-5.97-6.63-18.18-11.35-30.61-11.33-4.88,0,14.85,7.72,23.06,16.22,6.38,6.61,13.56,17.72,16.01,23.9-1.58-12.98-2.48-22.16-8.46-28.79Z"/>
          <path class="cls-9" d="m297.81,148.55c4.96-6.91,16.42-12.22,28.81-12.82,4.87-.24-13.65,8.44-20.55,17.32-5.37,6.9-10.87,18.34-12.38,24.61-.36-13.01-.83-22.2,4.13-29.11Z"/>
        </g>
        <g>
          <path class="cls-9" d="m296.52,254.53h0c-7.73,0-14.12-6.03-14.56-13.75l-1.29-22.32h31.7l-1.29,22.32c-.44,7.72-6.83,13.75-14.56,13.75Z"/>
          <polygon class="cls-9" points="314.42 223.53 278.61 223.53 277.59 214.24 315.44 214.24 314.42 223.53"/>
        </g>
      </g>
    </g>
  </g>
  <g id="Shadow">
    <ellipse id="_Path_" data-name="&amp;lt;Path&amp;gt;" class="cls-6" cx="250" cy="416.24" rx="193.89" ry="11.32"/>
  </g>
  <g id="Character">
    <g>
      <polygon class="cls-14" points="253.91 405.42 245.56 406.36 242.48 387.42 250.83 386.48 253.91 405.42"/>
      <polygon class="cls-14" points="291.29 407.24 282.95 407.24 280.88 387.93 289.22 387.93 291.29 407.24"/>
      <path class="cls-15" d="m282.27,406.27h10.16c.34,0,.64.24.71.57l1.65,7.41c.17.77-.43,1.5-1.22,1.48-3.27-.06-5.66-.25-9.78-.25-2.53,0-10.18.26-13.68.26s-3.96-3.46-2.52-3.77c6.42-1.41,11.26-3.34,13.32-5.19.37-.33.85-.51,1.35-.51Z"/>
      <path class="cls-15" d="m245.43,404.93l9.05-1.03c.34-.04.66.16.77.49l2.47,7.18c.26.74-.24,1.53-1.02,1.61-3.27.31-8.01.66-12.11,1.12-4.8.54-5.6,1.83-11.25,1.7-3.42-.08-4.29-3.56-2.85-3.84,6.55-1.27,7.82-2.26,13.03-6.35.57-.44,1.21-.79,1.92-.87Z"/>
      <path class="cls-14" d="m252.79,162.25c-2.8,2.31-5.56,4.32-8.41,6.38-2.84,2.03-5.76,3.97-8.76,5.82-3,1.85-6.07,3.63-9.3,5.24-3.23,1.62-6.56,3.13-10.26,4.28-.93.3-1.84.54-2.89.8-1.22.28-2.14.38-3.11.5-1.88.21-3.65.29-5.41.37-3.51.16-6.96.16-10.4.13-6.88-.08-13.7-.41-20.56-1.02l-.1-6.26c6.73-.87,13.49-1.62,20.18-2.37,3.34-.36,6.68-.77,9.94-1.2,1.62-.22,3.23-.48,4.72-.75.7-.14,1.48-.3,1.9-.45.59-.19,1.31-.43,1.97-.7,2.72-1.07,5.54-2.5,8.31-4.06,2.77-1.59,5.53-3.29,8.26-5.1,2.73-1.8,5.43-3.69,8.11-5.6,2.67-1.9,5.37-3.94,7.88-5.86l7.93,9.84Z"/>
      <path class="cls-12" d="m260.94,155.13c-1.2,7.88-17.79,19.94-17.79,19.94l-11.9-14.78s8.58-9.23,16.56-15.76c5.36-4.38,14.44,2.02,13.13,10.6Z"/>
      <path class="cls-14" d="m175.9,179.18l-4.73-3.37-.52,10.65s2.62,0,3.63-1.91l1.62-5.36Z"/>
      <polygon class="cls-14" points="166.89 172.71 165.92 183.14 170.65 186.46 171.17 175.81 166.89 172.71"/>
      <g>
        <polygon class="cls-7" points="242.49 387.43 244.07 397.19 252.42 396.25 250.84 386.49 242.49 387.43"/>
        <polygon class="cls-7" points="289.22 387.93 280.88 387.93 281.95 397.89 290.29 397.89 289.22 387.93"/>
      </g>
      <path class="cls-15" d="m289.34,144.78c2.62.59,4.23,3.21,3.59,5.81-1.89,7.7-3.18,15.44-4.08,22.79-.79,6.46-1.26,12.63-1.56,18.22-.69,13.1-.4,23.1-.79,26.48-6.52-.45-31.09-2.16-44.48-3.1-4.52-35.4.78-57.99,3.75-67.17.95-2.91,3.46-5.04,6.5-5.44,1.71-.22,3.75-.44,5.91-.57.75-.05,1.52-.07,2.3-.09,5.04-.11,13.25.65,18.91,1.32,1.19.14,2.39.32,3.56.5,2.33.38,4.56.83,6.4,1.24Z"/>
      <path class="cls-14" d="m278.99,121.61c-1.62,6-3.59,17.07.39,21.42-10.31,6.94-16.89,16.7-18.79,14.58-.99-1.11-1.43-13.95-.12-15.9,6.9-1.15,7.07-6.19,6.22-11l12.3-9.1Z"/>
      <path class="cls-12" d="m278.58,140.54s-16.8,7.44-19.03,24.06c4.63-5.36,14.85-11.19,14.85-11.19l-4.51-1.3s4.03-1.62,8.86-2.39c-.5-2.3,2.17-6.88,2.17-6.88l-2.34-2.31Z"/>
      <path class="cls-12" d="m263.42,140.27s2.24,9.5-3.87,24.33c-.95-5.66-4.93-15.14-4.93-15.14l4.12,1.12s-.21-1.91-3.53-4.46c1.24-2.39,5.11-5.19,5.11-5.19l3.11-.66Z"/>
      <path class="cls-7" d="m273.97,125.32l-7.28,5.38c.21,1.14.35,2.29.35,3.4,2.62-.19,6.38-2.79,6.84-5.49.23-1.34.27-2.65.09-3.29Z"/>
      <path class="cls-15" d="m257.64,104.23c-4.07.17-6.31,7.19-2.18,12.96,4.13,5.77,7.66-13.19,2.18-12.96Z"/>
      <path class="cls-14" d="m277.69,110.4c.48,8.26,1.18,13.07-2.45,17.78-5.47,7.08-16.04,4.54-18.98-3.41-2.65-7.16-2.99-19.46,4.64-23.69,7.52-4.17,16.31,1.06,16.79,9.32Z"/>
      <path class="cls-15" d="m278.9,116.74c-6.26-4.02-8.47-9.28-8.95-11.93-2.43.57-14.49,6.13-18.2,0-3.71-6.13.96-9.72,7.9-5.95-3.07-5.42-.28-8.07,9.37-8.31s8.35,5.36,8.35,5.36c0,0,7.3-3.18,9.9,2.42,2.98,6.44-2.54,17.44-8.37,18.41Z"/>
      <path class="cls-15" d="m275.72,94.44c.09,0,3.65.86,7.76-3.28-.74,3.53-7.12,5.88-7.12,5.88l-.65-2.6Z"/>
      <path class="cls-15" d="m280.51,106.53c-3.85-1.33-8.51,4.37-6.79,11.25,1.72,6.88,11.97-9.46,6.79-11.25Z"/>
      <path class="cls-14" d="m282.69,117.27c-.36,2.2-1.7,4.04-3.2,5.08-2.26,1.58-4.3-.23-4.43-2.84-.12-2.35.92-6,3.55-6.54,2.6-.53,4.49,1.77,4.08,4.29Z"/>
      <g>
        <path class="cls-12" d="m254.55,308.91c2-24.39,16.7-91.9,16.7-91.9l-29.24-2.04s-11.28,67.01-12.14,92.44c-.9,26.44,9.73,85.21,9.73,85.21l14.03-1.6s-1.09-57.64.92-82.12Z"/>
        <path class="cls-3" d="m254.55,308.91c2-24.39,16.7-91.9,16.7-91.9l-29.24-2.04s-11.28,67.01-12.14,92.44c-.9,26.44,9.73,85.21,9.73,85.21l14.03-1.6s-1.09-57.64.92-82.12Z"/>
      </g>
      <path class="cls-7" d="m260.23,239.88c-5.9,7.54-6,34.01-3.72,53.57,2.17-14.11,5.6-32.03,8.6-46.97l-4.88-6.61Z"/>
      <g>
        <path class="cls-12" d="m257.78,216.08s3.16,71.38,6.68,95.55c3.85,26.47,13.64,84.33,13.64,84.33h15.27s-2.51-54.49-4.53-80.5c-2.3-29.62-2.36-97.38-2.36-97.38l-28.7-2Z"/>
        <path class="cls-3" d="m257.78,216.08s3.16,71.38,6.68,95.55c3.85,26.47,13.64,84.33,13.64,84.33h15.27s-2.51-54.49-4.53-80.5c-2.3-29.62-2.36-97.38-2.36-97.38l-28.7-2Z"/>
      </g>
      <polygon class="cls-12" points="276.27 396.29 294.25 396.29 294.25 390.92 274.15 390.57 276.27 396.29"/>
      <polygon class="cls-12" points="238.98 394.22 255.7 392.32 255.09 386.92 236.37 388.75 238.98 394.22"/>
      <path class="cls-15" d="m265.53,114.18c.08.67-.21,1.25-.64,1.3-.44.05-.86-.45-.94-1.11-.08-.67.21-1.25.64-1.3.44-.05.86.45.94,1.11Z"/>
      <path class="cls-15" d="m257.98,115.09c.08.67-.21,1.25-.64,1.3-.44.05-.86-.45-.94-1.11-.08-.67.21-1.25.64-1.3s.86.45.94,1.11Z"/>
      <path class="cls-10" d="m260.42,115.14s-1.06,4.03-2.5,6.09c1.31.96,3.26.22,3.26.22l-.76-6.31Z"/>
      <path class="cls-15" d="m267.58,111.46c-.14.04-.29,0-.4-.1-1.22-1.27-2.65-1.01-2.67-1.01-.21.04-.42-.1-.46-.31-.04-.21.09-.42.31-.46.08-.01,1.87-.34,3.39,1.24.15.16.15.41-.01.56-.05.04-.1.08-.16.09Z"/>
      <path class="cls-15" d="m264.68,124.11s0,0,0,0c3.31-.8,4.28-3.43,4.32-3.54.04-.11-.02-.23-.13-.27-.11-.04-.23.02-.27.13,0,.03-.94,2.53-4.02,3.27-.11.03-.18.14-.16.26.03.11.14.18.25.16Z"/>
      <path class="cls-15" d="m254.43,112.88c-.08.02-.16.02-.24,0-.21-.07-.32-.3-.24-.5.71-2.06,2.47-2.53,2.55-2.55.21-.05.43.08.48.29.05.21-.09.43-.29.48h0c-.06.02-1.43.39-2,2.04-.04.12-.14.21-.26.25Z"/>
      <path class="cls-12" d="m279.51,407.73c-.63,0-1.23-.11-1.61-.43-.3-.25-.44-.6-.41-1.04.02-.33.2-.48.34-.56.93-.48,3.61,1.18,3.92,1.37.07.04.1.12.09.2-.01.08-.07.14-.15.16-.58.14-1.41.3-2.18.3Zm-1.24-1.73c-.1,0-.19.02-.26.05-.05.03-.12.08-.12.23-.02.31.07.55.27.72.46.38,1.54.44,2.96.15-.94-.54-2.21-1.15-2.85-1.15Z"/>
      <path class="cls-12" d="m281.65,407.43s-.06,0-.09-.02c-.86-.47-2.53-2.3-2.35-3.22.03-.17.16-.46.63-.52.3-.04.59.05.84.25.97.79,1.17,3.2,1.18,3.3,0,.07-.03.14-.09.18-.03.02-.07.03-.11.03Zm-1.68-3.38s-.06,0-.09,0c-.26.03-.28.15-.29.2-.1.55.96,1.93,1.82,2.58-.1-.7-.36-2.11-.98-2.61-.14-.12-.29-.17-.45-.17Z"/>
      <path class="cls-12" d="m244.75,406.16s-.02.01-.03.01c-1.3.42-3.64,1.01-4.64.31-.3-.21-.46-.52-.48-.91,0-.24.08-.43.26-.56.94-.66,4.46.64,4.86.79.08.03.13.11.13.19,0,.07-.04.14-.1.17Zm-4.61-.85s-.03.02-.05.03c-.07.05-.1.12-.1.22,0,.27.11.47.31.6.56.39,1.93.32,3.73-.19-1.4-.48-3.31-.97-3.89-.66Z"/>
      <path class="cls-12" d="m244.75,406.16s-.1.03-.15.01c-1.05-.34-3.23-1.9-3.19-2.86.01-.22.14-.52.67-.63.4-.09.77-.01,1.13.21,1.15.75,1.63,2.95,1.65,3.05.01.07,0,.14-.06.19-.01.01-.03.02-.04.03Zm-2.81-3.01c-.14.07-.14.16-.14.19-.03.57,1.48,1.83,2.57,2.33-.18-.64-.63-1.94-1.38-2.43-.26-.17-.53-.22-.83-.16-.1.02-.17.05-.22.07Z"/>
      <g>
        <path class="cls-14" d="m296.36,156.8c-.21,3.26-.59,6.29-.99,9.42-.4,3.11-.93,6.2-1.52,9.3-1.21,6.19-2.74,12.37-5.13,18.57l-.99,2.33-.25.58-.06.15-.1.22-.29.58c-.41.73-.88,1.4-1.38,1.95-1,1.12-2.03,1.89-3.01,2.48-.99.59-1.94,1.03-2.86,1.39-3.67,1.4-6.99,1.83-10.27,2.14-6.55.52-12.76.18-19.08-.71l.23-6.26,4.41-.5c1.48-.18,2.95-.4,4.41-.6,2.92-.43,5.81-.91,8.56-1.55,2.73-.62,5.44-1.44,7.38-2.45.94-.48,1.64-1.12,1.61-1.23.03-.14-.29.48.08-.52l.66-1.93c1.62-5.31,2.78-11.06,3.7-16.86.47-2.9.88-5.83,1.27-8.77.39-2.91.71-5.93,1.02-8.75l12.6,1Z"/>
        <path class="cls-12" d="m297.1,150.76c4.08,6.85.6,28.36.6,28.36l-21.39-3.95s-1.16-12.32,2.91-21.78c4.44-10.31,12.94-10.92,17.88-2.63Z"/>
        <g>
          <path class="cls-15" d="m244.68,218.3l-11.35-52.79c-.97-4.51-5.42-8.17-9.93-8.17h-43.49c4.51,0,8.96,3.66,9.93,8.17l11.35,52.79c.97,4.51,5.42,8.17,9.93,8.17h43.49c-4.51,0-8.96-3.66-9.93-8.17Z"/>
          <path class="cls-11" d="m244.68,218.3l-11.35-52.79c-.97-4.51-5.42-8.17-9.93-8.17h-43.49c4.51,0,8.96,3.66,9.93,8.17l11.35,52.79c.97,4.51,5.42,8.17,9.93,8.17h43.49c-4.51,0-8.96-3.66-9.93-8.17Z"/>
          <rect class="cls-12" x="156.02" y="227.77" width="12.39" height="1" transform="translate(-79.97 368.85) rotate(-84.73)"/>
          <rect class="cls-12" x="158.35" y="241.43" width="5.21" height="1" transform="translate(-94.72 380.01) rotate(-84.73)"/>
          <path class="cls-12" d="m179.92,157.33h43.49c-4.51,0-8.5,3.66-8.91,8.17l-11.28,122.68c-.41,4.51-4.4,8.17-8.91,8.17h-27.14c-4.51,0-7.84-3.66-7.43-8.17l11.28-122.68c.41-4.51,4.4-8.17,8.91-8.17Z"/>
          <g>
            <path class="cls-15" d="m186.86,288.18c-.41,4.51,2.92,8.17,7.43,8.17h-43.49c-4.51,0-7.84-3.66-7.43-8.17h43.49Z"/>
            <path class="cls-11" d="m186.86,288.18c-.41,4.51,2.92,8.17,7.43,8.17h-43.49c-4.51,0-7.84-3.66-7.43-8.17h43.49Z"/>
          </g>
          <g class="cls-5">
            <path class="cls-2" d="m206.95,171.08h-29.43c-.98,0-1.71-.8-1.62-1.78h0c.09-.98.96-1.78,1.94-1.78h29.43c.98,0,1.71.8,1.62,1.78h0c-.09.98-.96,1.78-1.94,1.78Z"/>
            <path class="cls-2" d="m206.08,180.7h-29.43c-.98,0-1.71-.8-1.62-1.78h0c.09-.98.96-1.78,1.94-1.78h29.43c.98,0,1.71.8,1.62,1.78h0c-.09.98-.96,1.78-1.94,1.78Z"/>
            <path class="cls-2" d="m197.99,190.33h-22.21c-.98,0-1.71-.8-1.62-1.78h0c.09-.98.96-1.78,1.94-1.78h22.21c.98,0,1.71.8,1.62,1.78h0c-.09.98-.96,1.78-1.94,1.78Z"/>
            <path class="cls-2" d="m182.43,199.95h-7.53c-.98,0-1.71-.8-1.62-1.78h0c.09-.98.96-1.78,1.94-1.78h7.53c.98,0,1.71.8,1.62,1.78h0c-.09.98-.96,1.78-1.94,1.78Z"/>
            <path class="cls-2" d="m203.45,209.58h-29.43c-.98,0-1.71-.8-1.62-1.78h0c.09-.98.96-1.78,1.94-1.78h29.43c.98,0,1.71.8,1.62,1.78h0c-.09.98-.96,1.78-1.94,1.78Z"/>
            <path class="cls-2" d="m190.98,219.21h-17.84c-.98,0-1.71-.8-1.62-1.78h0c.09-.98.96-1.78,1.94-1.78h17.84c.98,0,1.71.8,1.62,1.78h0c-.09.98-.96,1.78-1.94,1.78Z"/>
            <path class="cls-2" d="m201.7,228.83h-29.43c-.98,0-1.71-.8-1.62-1.78h0c.09-.98.96-1.78,1.94-1.78h29.43c.98,0,1.71.8,1.62,1.78h0c-.09.98-.96,1.78-1.94,1.78Z"/>
            <path class="cls-2" d="m193.61,238.46h-22.21c-.98,0-1.71-.8-1.62-1.78h0c.09-.98.96-1.78,1.94-1.78h22.21c.98,0,1.71.8,1.62,1.78h0c-.09.98-.96,1.78-1.94,1.78Z"/>
            <path class="cls-2" d="m178.06,248.09h-7.53c-.98,0-1.71-.8-1.62-1.78h0c.09-.98.96-1.78,1.94-1.78h7.53c.98,0,1.71.8,1.62,1.78h0c-.09.98-.96,1.78-1.94,1.78Z"/>
            <path class="cls-2" d="m199.07,257.71h-29.43c-.98,0-1.71-.8-1.62-1.78h0c.09-.98.96-1.78,1.94-1.78h29.43c.98,0,1.71.8,1.62,1.78h0c-.09.98-.96,1.78-1.94,1.78Z"/>
            <path class="cls-2" d="m186.61,267.34h-17.84c-.98,0-1.71-.8-1.62-1.78h0c.09-.98.96-1.78,1.94-1.78h17.84c.98,0,1.71.8,1.62,1.78h0c-.09.98-.96,1.78-1.94,1.78Z"/>
            <path class="cls-2" d="m197.32,276.96h-29.43c-.98,0-1.71-.8-1.62-1.78h0c.09-.98.96-1.78,1.94-1.78h29.43c.98,0,1.71.8,1.62,1.78h0c-.09.98-.96,1.78-1.94,1.78Z"/>
          </g>
        </g>
        <path class="cls-14" d="m253.23,199.62l-6.39-5.55-2.99,10.22s6.49,3.52,8.74.29l.65-4.96Z"/>
        <polygon class="cls-14" points="239.89 193.67 237.81 202.24 243.85 204.29 246.84 194.07 239.89 193.67"/>
      </g>
    </g>
  </g>
</svg>